<svg xmlns="http://www.w3.org/2000/svg" viewBox="0 0 1000 666">
  <defs>
    <path id="symbol-blue" pathLength="1" fill="#146891" fill-rule="evenodd" d="M407.0 178.5L402.0 178.5L398.5 176.0L394.5 146.0L384.5 118.0L384.5 109.0L386.0 106.5L396.5 115.0L408.5 130.0L417.5 148.0L422.5 163.0L424.5 175.0L420.0 177.5L407.0 178.5ZM424.0 402.5L412.5 381.0L397.0 369.5L381.0 365.5L342.0 369.5L327.0 368.5L312.0 361.5L304.5 353.0L299.5 341.0L297.5 317.0L279.5 298.0L278.5 289.0L283.5 282.0L277.0 278.5L273.5 273.0L274.5 266.0L281.5 251.0L281.5 244.0L262.0 238.5L257.5 235.0L254.5 229.0L254.5 220.0L258.5 210.0L287.0 164.5L288.5 167.0L285.5 173.0L260.5 215.0L258.5 220.0L258.5 228.0L263.0 233.5L281.0 237.5L286.5 243.0L286.5 250.0L278.5 268.0L278.5 272.0L280.0 274.5L291.5 279.0L291.5 282.0L284.5 287.0L283.5 294.0L299.5 310.0L301.5 314.0L303.5 320.0L304.5 338.0L309.5 350.0L317.0 357.5L330.0 362.5L383.0 359.5L401.0 365.5L413.0 375.5L417.5 382.0L424.5 397.0L424.0 402.5ZM354.0 354.5L334.0 353.5L326.0 349.5L318.5 342.0L315.5 336.0L315.5 319.0L309.5 303.0L309.5 296.0L302.5 287.0L300.5 275.0L297.5 273.0L295.5 267.0L297.5 261.0L301.5 257.0L297.0 255.5L295.5 253.0L299.5 239.0L299.5 232.0L295.5 223.0L297.0 217.5L300.0 219.5L307.5 220.0L307.0 222.5L298.5 222.0L302.5 232.0L302.5 237.0L298.5 248.0L299.0 252.5L304.0 252.5L306.0 250.5L307.0 253.5L323.0 253.5L328.0 251.5L333.5 253.0L333.0 255.5L325.0 255.5L324.0 253.5L323.0 255.5L307.5 256.0L323.5 257.0L320.0 259.5L318.0 258.5L314.5 262.0L314.0 275.5L319.0 276.5L322.5 275.0L320.5 266.0L324.5 258.0L327.0 256.5L334.0 256.5L337.0 259.5L341.5 256.0L341.0 253.5L348.5 254.0L348.0 255.5L342.0 256.5L343.5 260.0L342.0 260.5L341.0 258.5L337.5 263.0L339.5 274.0L344.0 274.5L349.5 270.0L350.5 260.0L357.0 258.5L357.0 256.5L364.0 256.5L365.5 255.0L363.5 254.0L364.0 252.5L367.0 252.5L368.0 255.5L381.0 251.5L389.0 251.5L392.0 254.5L395.5 252.0L396.0 249.5L400.0 251.5L405.0 246.5L413.0 246.5L417.5 252.0L417.5 260.0L410.0 265.5L407.0 265.5L404.0 261.5L404.5 265.0L401.5 268.0L408.0 266.5L413.5 268.0L414.5 272.0L411.0 279.5L409.5 278.0L412.5 272.0L410.0 268.5L405.5 270.0L405.5 275.0L406.5 280.0L411.5 287.0L419.0 304.5L430.5 299.0L420.5 272.0L425.5 254.0L422.5 234.0L423.5 231.0L421.5 225.0L423.0 222.5L425.0 232.5L426.0 218.5L427.5 221.0L428.5 248.0L426.5 261.0L423.5 266.0L423.5 273.0L432.5 297.0L435.0 298.5L451.0 290.5L455.0 290.5L457.5 293.0L456.5 297.0L453.0 300.5L450.0 297.5L446.0 302.5L436.5 305.0L443.0 318.5L468.0 306.5L479.5 294.0L484.5 281.0L487.5 257.0L493.5 232.0L498.5 218.0L502.5 214.0L492.5 246.0L486.5 286.0L480.5 299.0L474.0 306.5L463.0 314.5L443.0 323.5L439.5 322.0L434.5 308.0L431.0 306.5L421.5 312.0L428.5 327.0L426.0 330.5L394.0 344.5L371.0 351.5L354.0 354.5ZM670.0 390.5L666.0 390.5L656.5 379.0L565.5 255.0L553.0 242.5L537.0 232.5L525.0 228.5L508.0 227.5L506.5 226.0L506.5 220.0L508.0 218.5L524.0 218.5L540.0 223.5L556.0 232.5L570.5 246.0L669.5 379.0L672.5 384.0L672.5 388.0L670.0 390.5ZM741.0 390.5L737.0 390.5L734.5 387.0L734.5 240.0L731.5 242.0L666.5 333.0L702.5 381.0L703.5 388.0L701.0 390.5L698.0 390.5L580.5 233.0L577.5 228.0L579.0 221.5L582.0 220.5L588.5 226.0L660.0 323.5L734.5 222.0L740.0 220.5L743.5 224.0L743.5 388.0L741.0 390.5ZM425.5 236.0L426.0 234.5L424.5 235.0L425.5 236.0ZM412.5 262.0L415.5 257.0L414.5 251.0L412.0 248.5L408.0 248.5L404.5 251.0L409.5 252.0L404.5 255.0L405.5 260.0L408.0 262.5L412.5 262.0ZM395.5 269.0L395.0 267.5L398.0 267.5L402.5 263.0L402.5 254.0L404.5 253.0L404.0 251.5L396.0 255.5L384.5 255.0L389.5 260.0L388.5 267.0L391.0 269.5L395.5 269.0ZM384.5 289.0L397.0 287.5L404.0 282.5L406.5 283.0L406.5 281.0L404.0 280.5L396.0 285.5L395.0 283.5L387.0 286.5L384.5 277.0L383.0 275.5L379.5 276.0L382.0 273.5L384.0 275.5L385.0 274.5L387.5 278.0L388.0 283.5L393.0 281.5L396.0 282.5L403.5 278.0L403.5 273.0L400.5 271.0L401.0 268.5L390.0 271.5L387.5 269.0L384.5 257.0L382.0 253.5L378.5 255.0L381.0 255.5L381.0 257.5L373.5 261.0L373.5 265.0L377.0 270.5L386.5 268.0L378.0 273.5L372.0 272.5L370.0 274.5L369.0 269.5L365.0 273.5L361.5 273.0L367.5 269.0L367.5 262.0L365.0 259.5L351.5 262.0L351.5 270.0L355.0 271.5L356.0 274.5L359.0 270.5L360.5 273.0L358.5 274.0L360.0 275.5L366.0 277.5L372.5 277.0L367.5 281.0L369.0 286.5L374.0 287.5L384.0 283.5L384.0 285.5L378.5 288.0L384.5 289.0ZM372.5 269.0L371.5 261.0L374.5 258.0L368.0 256.5L366.5 258.0L369.5 262.0L369.5 268.0L372.5 269.0ZM311.5 276.0L311.5 268.0L310.0 266.5L310.5 273.0L307.5 273.0L307.5 261.0L311.0 262.5L313.5 260.0L312.0 258.5L306.0 259.5L303.5 263.0L303.5 272.0L308.0 276.5L311.5 276.0ZM332.5 274.0L335.5 270.0L336.5 260.0L335.0 258.5L327.0 259.5L322.5 266.0L326.0 273.5L332.5 274.0ZM300.5 271.0L302.0 260.5L298.5 264.0L298.5 269.0L300.5 271.0ZM349.5 350.0L365.0 348.5L386.0 342.5L410.0 333.5L424.5 326.0L419.0 313.5L413.0 314.5L407.0 319.5L403.0 318.5L399.0 322.5L395.0 321.5L392.5 317.0L395.0 312.5L402.0 313.5L402.5 310.0L406.0 307.5L409.0 308.5L415.5 305.0L407.0 284.5L395.0 290.5L378.0 291.5L370.0 294.5L369.5 292.0L371.5 291.0L366.5 287.0L366.5 280.0L362.0 277.5L354.0 275.5L343.0 277.5L336.0 275.5L327.5 279.0L329.5 286.0L334.0 290.5L339.0 290.5L341.5 288.0L341.5 283.0L344.0 279.5L345.5 280.0L343.5 283.0L345.0 288.5L351.0 289.5L355.0 287.5L356.5 289.0L353.0 291.5L345.5 292.0L346.0 293.5L354.0 293.5L353.0 296.5L343.0 295.5L342.0 292.5L338.0 292.5L330.0 298.5L320.0 297.5L311.5 300.0L318.5 319.0L317.5 333.0L327.0 345.5L336.0 349.5L349.5 350.0ZM331.5 291.0L327.5 287.0L324.0 278.5L316.5 280.0L316.5 286.0L321.0 291.5L331.5 291.0ZM306.5 287.0L304.0 279.5L303.5 283.0L306.5 287.0ZM315.5 292.0L317.5 291.0L314.5 287.0L313.5 280.0L308.0 280.5L309.5 291.0L315.5 292.0ZM360.0 290.5L357.5 289.0L361.0 287.5L360.0 290.5ZM364.0 294.5L361.5 294.0L366.5 293.0L364.0 294.5ZM330.5 295.0L331.0 293.5L325.0 293.5L323.5 295.0L330.5 295.0ZM520.0 388.5L491.0 387.5L465.0 377.5L452.0 368.5L442.5 359.0L430.5 338.0L438.0 333.5L448.5 351.0L459.0 361.5L481.0 374.5L497.0 378.5L519.0 378.5L529.0 376.5L546.0 369.5L567.5 351.0L572.5 344.0L581.5 324.0L583.5 314.0L583.5 297.0L585.0 294.5L590.0 294.5L593.5 300.0L592.5 322.0L587.5 337.0L580.5 350.0L562.0 370.5L552.0 377.5L537.0 384.5L520.0 388.5Z"/>
    <path id="symbol-gray" pathLength="1" fill="#84969d" fill-rule="evenodd" d="M382.0 238.5L368.0 238.5L354.0 232.5L338.5 218.0L332.5 209.0L327.5 197.0L327.5 189.0L329.5 185.0L332.0 183.5L336.0 185.5L336.5 189.0L343.0 192.5L351.0 191.5L360.5 178.0L360.5 163.0L351.5 146.0L342.0 138.5L333.0 136.5L325.0 141.5L320.5 137.0L313.5 123.0L311.0 105.5L304.5 110.0L302.5 116.0L303.5 126.0L307.5 135.0L307.5 148.0L295.5 171.0L295.5 174.0L302.0 177.5L306.5 183.0L311.5 199.0L312.5 215.0L307.5 222.0L310.5 212.0L307.5 193.0L303.5 183.0L293.0 174.5L292.5 172.0L305.5 146.0L305.5 136.0L300.5 124.0L300.5 114.0L306.0 104.5L313.5 102.0L314.5 91.0L317.5 85.0L321.0 82.5L337.0 82.5L354.0 85.5L370.0 91.5L378.5 98.0L379.5 102.0L376.5 110.0L376.5 119.0L387.5 147.0L391.5 179.0L395.0 183.5L408.0 184.5L449.0 174.5L477.0 175.5L498.0 164.5L508.0 161.5L517.0 163.5L521.5 170.0L521.5 179.0L516.0 186.5L510.0 187.5L501.0 183.5L492.0 183.5L473.0 194.5L467.0 192.5L449.0 193.5L430.0 201.5L396.0 222.5L379.0 229.5L369.0 229.5L352.0 221.5L339.5 209.0L329.5 191.0L331.5 202.0L342.5 219.0L352.0 227.5L365.0 234.5L373.0 236.5L385.0 234.5L421.0 213.5L423.5 216.0L422.0 224.5L421.5 218.0L419.0 217.5L392.0 234.5L382.0 238.5ZM378.5 226.0L394.0 220.5L412.0 208.5L446.0 191.5L455.0 189.5L474.0 191.5L492.0 180.5L501.0 180.5L513.0 184.5L518.5 180.0L519.5 172.0L515.0 165.5L507.0 164.5L498.0 167.5L480.0 177.5L447.0 177.5L419.0 185.5L406.0 187.5L395.0 186.5L389.5 180.0L384.5 145.0L374.5 121.0L374.5 107.0L376.5 100.0L366.0 92.5L351.0 87.5L340.0 85.5L321.0 85.5L316.5 93.0L316.5 107.0L324.0 128.5L318.5 121.0L313.5 103.0L315.5 122.0L320.5 133.0L325.0 138.5L331.0 134.5L339.0 134.5L347.0 138.5L355.5 147.0L360.5 156.0L364.0 174.5L365.5 169.0L364.5 157.0L356.5 140.0L349.0 132.5L340.0 127.5L333.0 126.5L328.0 129.5L325.5 129.0L330.0 124.5L344.0 126.5L350.0 130.5L360.5 142.0L364.5 150.0L367.5 163.0L365.5 176.0L362.5 177.0L360.5 184.0L355.0 191.5L347.0 195.5L343.0 195.5L333.0 189.5L333.5 194.0L343.5 210.0L354.0 219.5L369.0 226.5L378.5 226.0ZM289.0 166.5L287.5 164.0L294.5 152.0L296.5 143.0L287.5 113.0L288.5 104.0L290.0 103.5L290.5 117.0L298.5 139.0L298.5 147.0L296.5 154.0L289.0 166.5ZM314.0 222.5L313.5 219.0L316.5 212.0L316.5 198.0L307.5 174.0L306.5 159.0L311.5 147.0L314.0 144.5L319.0 144.5L323.5 149.0L323.5 152.0L318.5 170.0L318.5 214.0L314.0 222.5ZM427.0 220.5L425.5 213.0L429.0 209.5L448.0 201.5L451.0 201.5L461.0 213.5L472.0 215.5L480.5 209.0L486.5 195.0L492.0 190.5L499.0 191.5L508.5 200.0L503.0 214.5L500.5 213.0L505.5 204.0L505.5 200.0L499.0 194.5L491.0 193.5L486.5 200.0L483.5 209.0L475.0 217.5L463.0 217.5L456.5 213.0L450.0 204.5L447.0 204.5L428.0 213.5L427.0 220.5ZM437.0 285.5L433.5 284.0L429.5 272.0L434.5 254.0L432.5 217.0L437.0 213.5L442.0 212.5L447.0 214.5L450.5 221.0L448.5 270.0L445.5 280.0L437.0 285.5ZM312.0 253.5L307.0 253.5L305.5 250.0L306.5 244.0L311.0 238.5L312.5 240.0L312.0 253.5ZM360.0 257.5L355.5 256.0L356.5 243.0L359.0 239.5L361.5 242.0L361.5 246.0L364.5 251.0L363.5 255.0L360.0 257.5ZM415.0 249.5L413.5 247.0L415.0 245.5L417.0 246.5L422.0 241.5L422.5 244.0L415.0 249.5ZM392.0 252.5L391.5 250.0L394.0 248.5L395.5 250.0L392.0 252.5ZM410.0 251.5L408.5 251.0L411.0 248.5L413.5 250.0L410.0 251.5ZM351.0 255.5L348.5 254.0L353.5 254.0L351.0 255.5ZM368.0 255.5L367.0 253.5L371.5 254.0L368.0 255.5ZM384.0 258.5L380.5 255.0L382.0 253.5L384.0 258.5ZM402.0 256.5L401.0 253.5L402.5 254.0L402.0 256.5ZM346.0 258.5L343.5 257.0L346.0 255.5L346.0 258.5ZM357.0 272.5L354.5 271.0L357.0 270.5L357.0 272.5ZM409.0 281.5L407.5 281.0L409.0 278.5L410.5 280.0L409.0 281.5ZM355.0 295.5L353.0 292.5L360.0 291.5L363.5 293.0L361.0 294.5L357.0 293.5L355.0 295.5ZM365.0 295.5L365.0 293.5L369.5 292.0L369.0 294.5L365.0 295.5ZM341.0 311.5L334.5 296.0L338.0 297.5L342.0 292.5L344.5 296.0L341.5 298.0L343.5 306.0L341.0 311.5ZM347.0 345.5L336.0 345.5L330.0 343.5L324.5 335.0L324.5 325.0L327.0 323.5L332.5 333.0L338.0 337.5L352.0 338.5L391.0 327.5L412.0 319.5L415.5 321.0L415.0 324.5L397.0 331.5L367.0 341.5L347.0 345.5Z"/>
    <path id="signature" pathLength="1" fill="#146891" fill-rule="evenodd" d="M424.0 402.5L412.5 381.0L397.0 369.5L381.0 365.5L342.0 369.5L327.0 368.5L310.5 360.0L322.0 359.5L330.0 362.5L348.0 362.5L364.0 359.5L383.0 359.5L394.0 362.5L404.0 367.5L413.5 376.0L424.5 397.0L424.0 402.5ZM520.0 388.5L498.0 388.5L475.0 382.5L457.0 372.5L443.5 360.0L457.0 359.5L476.0 372.5L497.0 378.5L525.0 377.5L546.0 369.5L559.0 359.5L572.5 360.0L562.0 370.5L552.0 377.5L537.0 384.5L520.0 388.5ZM670.0 390.5L666.0 390.5L663.5 388.0L643.0 359.5L655.5 360.0L672.5 384.0L672.5 388.0L670.0 390.5ZM701.0 390.5L698.0 390.5L692.5 385.0L675.0 359.5L686.0 359.5L688.5 362.0L703.5 383.0L703.5 388.0L701.0 390.5ZM741.0 390.5L737.0 390.5L734.5 387.0L735.0 359.5L743.5 360.0L743.5 388.0L741.0 390.5ZM431.0 535.5L421.0 535.5L415.0 533.5L408.5 527.0L406.5 521.0L407.5 513.0L411.5 504.0L419.5 493.0L414.0 492.5L403.0 495.5L402.5 492.0L417.5 488.0L417.5 471.0L423.5 461.0L434.0 451.5L454.0 442.5L465.0 441.5L474.0 443.5L481.0 447.5L489.5 458.0L490.5 476.0L487.5 486.0L479.5 500.0L465.0 516.5L445.0 530.5L431.0 535.5ZM674.0 536.5L670.0 536.5L667.5 534.0L667.5 522.0L674.5 498.0L687.5 470.0L688.0 465.5L663.5 499.0L647.0 528.5L642.5 527.0L642.5 523.0L656.5 474.0L656.0 470.5L621.5 532.0L619.0 534.5L615.5 532.0L615.5 529.0L630.5 508.0L657.5 462.0L660.5 456.0L660.5 450.0L655.0 446.5L643.0 451.5L621.5 468.0L614.5 477.0L610.0 489.5L606.5 488.0L606.5 483.0L615.5 469.0L627.0 457.5L649.0 443.5L659.0 441.5L665.5 446.0L667.5 451.0L667.5 457.0L654.5 501.0L654.0 507.5L684.5 463.0L698.0 448.5L701.5 451.0L700.5 457.0L687.5 483.0L677.5 508.0L672.5 525.0L673.0 531.5L694.5 503.0L706.0 481.5L710.0 482.5L711.5 486.0L706.5 494.0L705.0 501.5L723.0 483.5L729.0 480.5L733.0 480.5L735.5 483.0L735.5 486.0L731.0 490.5L720.5 495.0L719.5 499.0L722.0 502.5L733.0 497.5L740.5 490.0L740.5 483.0L747.0 476.5L753.0 476.5L754.5 478.0L754.0 482.5L750.0 480.5L746.5 484.0L746.5 487.0L753.0 494.5L771.0 480.5L777.0 479.5L779.5 482.0L780.5 486.0L776.0 490.5L765.5 495.0L764.5 499.0L766.0 501.5L773.0 500.5L781.0 494.5L785.5 490.0L785.5 482.0L793.0 475.5L797.0 475.5L799.5 478.0L798.0 481.5L795.0 480.5L791.5 484.0L798.0 494.5L810.0 485.5L812.5 486.0L809.0 491.5L799.5 498.0L799.5 502.0L794.5 511.0L786.0 517.5L779.0 517.5L777.5 512.0L787.0 501.5L792.5 498.0L789.0 492.5L777.0 502.5L769.0 506.5L764.0 506.5L760.5 504.0L759.0 494.5L754.5 498.0L754.5 502.0L749.5 511.0L741.0 517.5L734.0 517.5L731.5 514.0L734.5 508.0L747.5 497.0L743.0 492.5L735.0 500.5L725.0 506.5L717.0 505.5L714.0 498.5L705.0 507.5L700.0 507.5L698.0 503.5L684.5 525.0L674.0 536.5ZM892.0 536.5L886.5 533.0L886.5 521.0L893.5 497.0L907.0 464.5L893.5 481.0L864.0 528.5L860.5 526.0L860.5 522.0L874.0 471.5L839.5 532.0L835.0 533.5L833.5 531.0L873.5 466.0L878.5 456.0L878.5 449.0L876.0 446.5L870.0 446.5L858.0 452.5L838.5 469.0L827.0 489.5L824.5 487.0L824.5 483.0L833.5 469.0L846.0 456.5L857.0 448.5L871.0 441.5L880.0 442.5L885.5 451.0L885.5 458.0L876.5 486.0L872.0 507.5L898.5 468.0L916.0 448.5L919.5 450.0L919.5 455.0L897.5 504.0L892.5 520.0L892.0 529.5L894.0 529.5L902.5 519.0L917.0 496.5L918.5 497.0L918.5 500.0L901.5 527.0L892.0 536.5ZM245.0 537.5L235.0 536.5L228.5 529.0L228.5 522.0L233.5 512.0L243.0 503.5L259.0 495.5L285.0 489.5L292.5 481.0L304.5 461.0L305.5 453.0L302.0 450.5L288.0 450.5L278.0 453.5L266.0 459.5L255.5 471.0L254.5 477.0L259.5 481.0L259.5 483.0L253.0 481.5L250.5 478.0L250.5 472.0L254.5 465.0L261.0 458.5L277.0 449.5L292.0 445.5L299.0 445.5L306.0 447.5L310.5 452.0L311.5 459.0L309.5 465.0L295.0 488.5L310.0 487.5L315.0 482.5L319.0 482.5L322.5 485.0L321.5 493.0L323.0 493.5L328.5 490.0L329.5 482.0L333.0 478.5L341.0 477.5L343.5 482.0L342.0 483.5L337.0 482.5L334.5 486.0L342.0 495.5L357.0 484.5L366.0 482.5L368.5 485.0L367.5 489.0L364.0 492.5L354.5 496.0L353.5 500.0L355.0 502.5L363.0 500.5L376.5 489.0L374.5 495.0L367.0 502.5L360.0 506.5L353.0 507.5L348.5 503.0L348.5 497.0L344.0 498.5L339.5 510.0L329.0 518.5L322.0 518.5L320.5 513.0L336.5 498.0L331.0 492.5L325.0 496.5L319.0 496.5L308.0 508.5L302.5 504.0L306.5 492.0L292.0 492.5L275.5 514.0L259.0 530.5L245.0 537.5ZM96.0 538.5L80.0 535.5L75.5 531.0L75.5 524.0L77.5 520.0L85.0 513.5L108.5 502.0L120.5 478.0L135.0 458.5L139.5 460.0L139.5 464.0L130.5 474.0L117.0 500.5L143.0 493.5L165.0 490.5L170.5 484.0L173.5 476.0L172.5 464.0L167.0 457.5L158.0 453.5L144.0 452.5L120.0 457.5L103.0 465.5L86.5 479.0L84.0 486.5L82.0 487.5L80.5 486.0L80.5 480.0L90.0 469.5L106.0 458.5L119.0 452.5L139.0 447.5L158.0 447.5L171.0 453.5L176.5 459.0L179.5 467.0L179.5 476.0L174.0 489.5L184.0 488.5L190.5 477.0L193.0 474.5L198.0 474.5L199.5 478.0L192.5 489.0L195.5 495.0L188.5 510.0L187.0 517.5L191.5 514.0L205.5 491.0L208.0 488.5L210.5 490.0L197.5 512.0L187.0 522.5L184.0 522.5L180.5 519.0L180.5 515.0L188.5 493.0L185.0 491.5L174.0 492.5L171.0 493.5L154.0 511.5L132.0 526.5L120.0 532.5L96.0 538.5ZM430.5 529.0L438.0 527.5L456.0 516.5L470.5 502.0L478.5 491.0L484.5 477.0L485.5 464.0L484.5 459.0L478.0 451.5L467.0 447.5L451.0 449.5L437.0 456.5L425.5 468.0L421.5 478.0L421.5 486.0L423.0 487.5L452.0 464.5L463.0 463.5L465.5 466.0L464.5 472.0L458.0 478.5L447.0 484.5L430.0 490.5L426.5 495.0L426.5 497.0L435.0 504.5L443.0 508.5L451.0 509.5L450.0 512.5L441.0 511.5L433.0 507.5L423.0 498.5L417.5 506.0L413.5 516.0L414.5 525.0L419.0 528.5L430.5 529.0ZM440.5 483.0L453.0 477.5L460.5 471.0L460.5 468.0L452.0 471.5L437.5 483.0L440.5 483.0ZM356.0 480.5L354.5 478.0L357.0 475.5L364.0 470.5L367.5 471.0L364.0 476.5L356.0 480.5ZM709.0 480.5L707.5 476.0L712.0 470.5L715.0 470.5L716.5 472.0L715.5 475.0L709.0 480.5ZM567.0 521.5L563.0 521.5L560.5 519.0L560.5 511.0L566.5 496.0L566.0 492.5L553.0 507.5L549.0 507.5L546.0 501.5L540.0 507.5L535.0 507.5L533.0 500.5L525.0 507.5L520.0 508.5L515.5 502.0L517.5 496.0L516.0 495.5L511.5 499.0L508.5 509.0L501.0 516.5L497.0 518.5L491.0 518.5L488.5 516.0L490.5 510.0L504.5 498.0L497.5 489.0L497.5 483.0L504.0 476.5L510.0 476.5L512.5 479.0L512.5 482.0L507.0 481.5L504.5 484.0L504.5 487.0L511.0 494.5L523.0 484.5L532.0 482.5L533.5 488.0L532.0 489.5L529.0 488.5L525.5 492.0L521.5 500.0L522.0 503.5L527.0 501.5L545.0 483.5L553.0 483.5L557.5 487.0L551.5 501.0L553.0 502.5L561.5 492.0L566.5 478.0L572.0 472.5L576.0 473.5L576.5 479.0L570.5 488.0L573.5 491.0L573.5 495.0L566.0 516.5L575.5 505.0L585.0 486.5L587.5 488.0L587.5 490.0L575.5 512.0L567.0 521.5ZM541.5 501.0L547.5 494.0L549.0 489.5L546.0 490.5L540.5 497.0L539.5 501.0L541.5 501.0ZM310.5 501.0L314.5 497.0L316.0 490.5L311.5 495.0L309.5 500.0L310.5 501.0ZM242.5 532.0L256.0 525.5L272.5 508.0L282.5 494.0L261.0 499.5L246.0 507.5L237.5 516.0L233.5 526.0L237.0 531.5L242.5 532.0ZM100.5 532.0L111.0 529.5L132.0 519.5L144.0 511.5L160.5 496.0L144.0 497.5L114.0 505.5L107.0 520.5L103.0 520.5L101.5 518.0L104.0 508.5L87.0 517.5L79.5 525.0L79.5 529.0L84.0 532.5L100.5 532.0ZM737.5 514.0L742.5 511.0L747.0 502.5L737.5 510.0L735.5 513.0L737.5 514.0ZM782.5 514.0L787.5 511.0L792.0 502.5L781.5 512.0L782.5 514.0ZM495.5 514.0L503.5 507.0L504.0 503.5L494.5 511.0L493.5 514.0L495.5 514.0ZM327.5 514.0L332.5 510.0L335.0 504.5L324.5 514.0L327.5 514.0ZM919.0 519.5L915.5 517.0L915.5 513.0L918.0 510.5L921.0 510.5L923.5 513.0L923.5 516.0L919.0 519.5ZM206.0 523.5L203.0 523.5L200.5 521.0L201.5 516.0L204.0 514.5L208.5 518.0L208.5 521.0L206.0 523.5Z"/>
    <path id="specialty" pathLength="1" fill="#84969d" fill-rule="evenodd" d="M241.0 582.5L233.0 580.5L228.5 572.0L231.5 562.0L236.0 559.5L246.5 561.0L245.0 565.5L238.0 563.5L233.5 568.0L233.5 573.0L237.0 577.5L246.5 577.0L246.5 580.0L241.0 582.5ZM254.0 581.5L250.5 581.0L251.0 559.5L255.5 561.0L255.5 580.0L254.0 581.5ZM279.0 581.5L274.0 581.5L269.0 573.5L266.5 574.0L266.5 580.0L265.0 581.5L261.5 581.0L262.0 559.5L273.0 559.5L278.5 564.0L278.5 569.0L274.5 574.0L279.5 580.0L279.0 581.5ZM294.0 582.5L288.0 581.5L284.5 578.0L284.0 559.5L288.5 560.0L288.5 575.0L291.0 577.5L296.5 576.0L296.5 561.0L298.0 559.5L301.5 560.0L301.5 576.0L297.0 581.5L294.0 582.5ZM315.0 581.5L306.5 581.0L307.0 577.5L313.0 577.5L316.5 574.0L316.5 567.0L312.0 563.5L308.0 564.5L306.5 563.0L307.0 559.5L317.0 560.5L320.5 564.0L321.5 574.0L320.5 577.0L315.0 581.5ZM344.0 581.5L341.0 581.5L337.0 575.5L330.0 575.5L328.0 581.5L323.5 581.0L332.0 559.5L337.5 560.0L344.5 579.0L344.0 581.5ZM367.0 581.5L362.5 581.0L354.0 567.5L353.5 581.0L350.0 581.5L348.5 580.0L349.0 559.5L353.0 559.5L363.0 573.5L362.5 561.0L364.0 559.5L367.5 560.0L367.0 581.5ZM384.0 582.5L376.0 580.5L371.5 574.0L372.5 565.0L378.0 559.5L386.0 559.5L392.5 566.0L391.5 577.0L384.0 582.5ZM417.0 582.5L409.0 580.5L404.5 573.0L405.5 565.0L411.0 559.5L420.0 559.5L425.5 566.0L426.5 571.0L423.5 579.0L417.0 582.5ZM448.0 581.5L444.0 581.5L438.0 573.5L435.5 574.0L435.0 581.5L430.5 580.0L430.5 561.0L432.0 559.5L442.0 559.5L446.5 562.0L447.5 569.0L443.5 574.0L448.5 580.0L448.0 581.5ZM471.0 581.5L467.0 581.5L465.0 575.5L457.0 575.5L454.0 581.5L450.5 581.0L458.0 559.5L464.5 561.0L471.5 579.0L471.0 581.5ZM489.0 581.5L476.0 581.5L474.5 580.0L474.5 561.0L476.0 559.5L479.5 560.0L479.5 577.0L489.0 577.5L489.0 581.5ZM511.0 581.5L507.5 581.0L507.5 574.0L500.5 564.0L500.0 559.5L504.0 559.5L509.0 568.5L515.0 559.5L519.5 560.0L511.5 574.0L511.0 581.5ZM554.0 581.5L550.5 581.0L550.5 570.0L549.0 568.5L544.0 581.5L540.5 580.0L536.0 568.5L534.5 581.0L531.0 581.5L531.5 560.0L537.5 560.0L543.0 573.5L548.5 560.0L554.0 559.5L555.5 580.0L554.0 581.5ZM579.0 581.5L576.0 581.5L573.0 575.5L566.0 575.5L563.0 581.5L558.5 581.0L566.0 559.5L572.5 560.0L579.5 578.0L579.0 581.5ZM601.0 581.5L597.0 581.5L592.0 574.5L587.0 581.5L582.5 581.0L588.5 571.0L582.5 562.0L583.0 559.5L586.0 559.5L591.0 566.5L597.0 559.5L601.5 560.0L594.5 570.0L601.5 579.0L601.0 581.5ZM610.0 581.5L605.5 580.0L605.5 561.0L607.0 559.5L610.5 560.0L610.0 581.5ZM631.0 581.5L618.0 581.5L616.5 580.0L617.0 559.5L621.5 560.0L621.5 577.0L631.0 577.5L631.0 581.5ZM646.0 582.5L638.0 580.5L633.5 574.0L633.5 567.0L640.0 559.5L648.0 559.5L654.5 566.0L653.5 577.0L646.0 582.5ZM663.0 581.5L659.5 581.0L659.5 560.0L674.0 559.5L674.5 563.0L673.0 564.5L665.0 563.5L663.5 565.0L664.0 569.5L673.0 569.5L673.5 573.0L665.0 573.5L663.0 581.5ZM696.0 581.5L692.0 581.5L689.0 575.5L682.0 575.5L679.0 581.5L675.5 581.0L683.0 559.5L689.5 561.0L696.5 579.0L696.0 581.5ZM710.0 582.5L704.0 581.5L698.5 575.0L699.5 564.0L705.0 559.5L714.0 559.5L715.5 561.0L715.0 565.5L712.0 563.5L707.0 563.5L703.5 567.0L705.0 576.5L715.5 577.0L715.5 581.0L710.0 582.5ZM725.0 581.5L720.5 580.0L721.0 559.5L725.5 561.0L725.0 581.5ZM749.0 581.5L745.5 581.0L743.0 575.5L736.0 575.5L733.0 581.5L728.5 580.0L737.0 559.5L742.5 560.0L750.5 580.0L749.0 581.5ZM767.0 581.5L753.5 581.0L754.0 559.5L757.5 560.0L757.5 577.0L767.0 577.5L767.0 581.5ZM272.5 569.0L273.0 564.5L266.5 564.0L267.0 569.5L272.5 569.0ZM385.5 577.0L387.5 575.0L387.5 566.0L385.0 563.5L380.0 563.5L376.5 568.0L376.5 574.0L380.0 577.5L385.5 577.0ZM418.5 577.0L421.5 573.0L420.5 566.0L417.0 563.5L413.0 563.5L410.5 566.0L409.5 573.0L413.0 577.5L418.5 577.0ZM441.5 569.0L442.0 564.5L435.5 564.0L436.0 569.5L441.5 569.0ZM647.5 577.0L649.5 574.0L649.5 567.0L646.0 563.5L642.0 563.5L638.5 568.0L638.5 574.0L642.0 577.5L647.5 577.0ZM336.5 571.0L334.0 564.5L331.5 571.0L336.5 571.0ZM463.5 571.0L461.0 564.5L458.5 571.0L463.5 571.0ZM571.5 571.0L569.0 564.5L566.5 571.0L571.5 571.0ZM688.5 571.0L686.0 564.5L683.5 571.0L688.5 571.0ZM741.5 571.0L739.0 564.5L736.5 571.0L741.5 571.0Z"/>
  </defs>
  <use href="#symbol-blue"/>
  <use href="#symbol-gray"/>
  <use href="#signature"/>
  <use href="#specialty"/>
</svg>
